Coordinates
version=1
nRows=10
nColumns=28
inDegrees=yes

Units are S.I. units (second, meters, Newtons, ...)
Angles are in degrees.

endheader
time	pelvis_tilt	pelvis_list	pelvis_rotation	pelvis_tx	pelvis_ty	pelvis_tz	hip_flexion_r	hip_adduction_r	hip_rotation_r	knee_angle_r	ankle_angle_r	subtalar_angle_r	mtp_angle_r	hip_flexion_l	hip_adduction_l	hip_rotation_l	knee_angle_l	socket_flexion	socket_adduction	socket_rotation	socket_tx	socket_ty	socket_tz	foot_flex	lumbar_extension	lumbar_bending	lumbar_rotation
      0.97916667	      8.43480779	      0.40724775	     -5.96099449	      0.41454894	      1.02696155	      0.27634942	     -1.91704933	      3.52976456	      2.02536424	    -19.95130910	     11.29904100	     -4.30575081	     33.18009570	     -0.77426692	     -2.09770203	     -6.55557805	    -58.55421960	     -5.64025483	      0.00000000	      0.00000000	      0.00000000	      0.00000000	      0.00000000	      3.65034696	    -15.99411283	      0.03316532	     12.77069200
      0.98333333	      8.36363624	      0.63051728	     -6.25525803	      0.41985944	      1.02769859	      0.27689084	     -2.44991202	      3.16767881	      2.07101783	    -19.29891498	     11.09336189	     -3.36121728	     33.60553652	     -0.23665407	     -1.84769088	     -6.46656752	    -58.06783032	     -5.55579334	      0.00000000	      0.00000000	      0.00000000	      0.00000000	      0.00000000	      3.69048215	    -15.79169965	     -0.27445956	     13.09081477
      0.98750000	      8.37811729	      0.69173702	     -6.50500371	      0.42432187	      1.02821846	      0.27755078	     -2.87109918	      3.01701975	      2.04775076	    -19.02606223	     11.15835919	     -3.17948672	     33.70483812	      0.36594985	     -1.83086503	     -6.39036508	    -57.91660834	     -5.65420973	      0.00000000	      0.00000000	      0.00000000	      0.00000000	      0.00000000	      3.63874641	    -15.84864257	     -0.49352296	     13.16443883
      0.99166667	      8.34698707	      0.77534301	     -6.76479566	      0.42905381	      1.02883307	      0.27811525	     -3.31634045	      2.83425620	      2.08809559	    -18.61289067	     11.13798907	     -2.81779972	     33.83926342	      0.93161175	     -1.74766129	     -6.25349913	    -57.52239467	     -5.62825872	      0.00000000	      0.00000000	      0.00000000	      0.00000000	      0.00000000	      3.62358179	    -15.79941555	     -0.65805975	     13.33930977
      0.99583333	      8.32952946	      0.84869056	     -7.05377371	      0.43368911	      1.02942497	      0.27873045	     -3.73601437	      2.65360633	      2.10499580	    -18.26547418	     11.06535182	     -2.41678728	     33.98446865	      1.46972523	     -1.67248924	     -6.13824832	    -57.08203247	     -5.58976553	      0.00000000	      0.00000000	      0.00000000	      0.00000000	      0.00000000	      3.63494073	    -15.77828833	     -0.83243685	     13.54387634
      1.00000000	      8.42632222	      1.02098722	     -7.47726684	      0.43824482	      1.03004774	      0.27938052	     -4.06376965	      2.25880865	      1.79136992	    -18.27926560	     11.07859740	     -1.19453685	     34.89923410	      1.83792709	     -1.45462226	     -6.14201321	    -56.49092025	     -5.50235141	      0.00000000	      0.00000000	      0.00000000	      0.00000000	      0.00000000	      3.64538179	    -15.88190945	     -1.17816729	     14.10938970
      1.00416667	      8.36928119	      1.03268802	     -7.68917563	      0.44278281	      1.03050381	      0.27989931	     -4.44907604	      2.16923944	      1.81929738	    -17.92312771	     11.06157740	     -0.99075446	     34.99250277	      2.43200197	     -1.44472080	     -5.90926652	    -56.04412063	     -5.49068323	      0.00000000	      0.00000000	      0.00000000	      0.00000000	      0.00000000	      3.64437599	    -15.84027490	     -1.25337858	     14.14691680
      1.00833333	      8.31636718	      1.06201896	     -7.93694552	      0.44733385	      1.03097403	      0.28043039	     -4.82761556	      2.04135241	      1.83750791	    -17.57536111	     10.95556440	     -0.71215286	     35.10190654	      2.99309993	     -1.40923025	     -5.70593952	    -55.51205561	     -5.44659204	      0.00000000	      0.00000000	      0.00000000	      0.00000000	      0.00000000	      3.65578941	    -15.79803782	     -1.35146033	     14.25196196
      1.01250000	      8.33950244	      1.00318945	     -8.24994120	      0.45149368	      1.03125030	      0.28103311	     -5.11171137	      1.98685994	      1.76882223	    -17.56753346	     10.95378889	     -0.68554119	     35.11329597	      3.52814263	     -1.48422055	     -5.58018534	    -55.19220839	     -5.57285050	      0.00000000	      0.00000000	      0.00000000	      0.00000000	      0.00000000	      3.67391205	    -15.92275009	     -1.38698904	     14.26488840
      1.01666667	      8.21874770	      1.10616086	     -8.44229213	      0.45636294	      1.03180440	      0.28153707	     -5.55877284	      1.80537235	      1.89135911	    -16.93655601	     10.75031439	     -0.14055676	     35.29026195	      4.06388949	     -1.34821630	     -5.27519709	    -54.32701334	     -5.34355504	      0.00000000	      0.00000000	      0.00000000	      0.00000000	      0.00000000	      3.69172700	    -15.73396544	     -1.56864239	     14.54506839
